<svg xmlns="http://www.w3.org/2000/svg" xmlns:xlink="http://www.w3.org/1999/xlink" viewBox="0 0 500 385.24"><defs><style>.cls-1{fill:url(#linear-gradient);}.cls-2{fill:url(#linear-gradient-2);}.cls-3{fill:url(#linear-gradient-3);}.cls-4{fill:url(#linear-gradient-4);}.cls-5{fill:url(#linear-gradient-5);}.cls-6{fill:url(#linear-gradient-6);}.cls-7{fill:url(#linear-gradient-7);}.cls-8{fill:url(#linear-gradient-8);}.cls-9{fill:#e3e3f2;}.cls-10{fill:#cacad7;}.cls-11{fill:url(#linear-gradient-9);}.cls-12{fill:url(#linear-gradient-10);}.cls-13{fill:url(#linear-gradient-11);}.cls-14{fill:url(#linear-gradient-12);}.cls-15{fill:url(#linear-gradient-13);}.cls-16{fill:url(#linear-gradient-14);}.cls-17{fill:url(#linear-gradient-15);}.cls-18{fill:#fff;}.cls-19{fill:#5aabca;}.cls-20{fill:url(#linear-gradient-16);}.cls-21{fill:url(#linear-gradient-17);}.cls-22{fill:url(#linear-gradient-18);}.cls-23{fill:#e7e8f4;}.cls-24{fill:url(#linear-gradient-19);}.cls-25{fill:url(#linear-gradient-20);}.cls-26{fill:url(#linear-gradient-21);}.cls-27{fill:url(#linear-gradient-22);}.cls-28{fill:#e2dede;}.cls-29{fill:url(#linear-gradient-23);}.cls-30{fill:url(#linear-gradient-24);}.cls-31{fill:url(#linear-gradient-25);}.cls-32{fill:url(#linear-gradient-26);}.cls-33{fill:url(#linear-gradient-27);}.cls-34{fill:url(#linear-gradient-28);}.cls-35{fill:url(#linear-gradient-29);}.cls-36{fill:url(#linear-gradient-30);}.cls-37{fill:#a8dcdd;}.cls-38,.cls-39{fill:none;stroke-miterlimit:10;}.cls-38{stroke:url(#linear-gradient-31);}.cls-39{stroke:url(#linear-gradient-32);}</style><linearGradient id="linear-gradient" x1="153.73" y1="257.41" x2="376.63" y2="257.41" gradientUnits="userSpaceOnUse"><stop offset="0" stop-color="#00a2df"/><stop offset="0.22" stop-color="#009fdb"/><stop offset="0.44" stop-color="#0095cf"/><stop offset="0.66" stop-color="#0084bb"/><stop offset="0.88" stop-color="#006c9f"/><stop offset="0.95" stop-color="#006394"/></linearGradient><linearGradient id="linear-gradient-2" x1="483.86" y1="226.69" x2="494.79" y2="215.77" gradientUnits="userSpaceOnUse"><stop offset="0" stop-color="#ef529d"/><stop offset="0.95" stop-color="#664d9f"/></linearGradient><linearGradient id="linear-gradient-3" x1="125.03" y1="164.72" x2="135.96" y2="153.79" xlink:href="#linear-gradient-2"/><linearGradient id="linear-gradient-4" x1="231.66" y1="271.75" x2="388.15" y2="115.26" gradientUnits="userSpaceOnUse"><stop offset="0" stop-color="#ef529d"/><stop offset="0.95" stop-color="#00bff3"/></linearGradient><linearGradient id="linear-gradient-5" x1="494.46" y1="185.28" x2="125.35" y2="185.28" gradientUnits="userSpaceOnUse"><stop offset="0" stop-color="#ef529d"/><stop offset="0.16" stop-color="#eb529d"/><stop offset="0.32" stop-color="#df519d"/><stop offset="0.49" stop-color="#cb519e"/><stop offset="0.65" stop-color="#af509e"/><stop offset="0.81" stop-color="#8b4e9e"/><stop offset="0.95" stop-color="#664d9f"/></linearGradient><linearGradient id="linear-gradient-6" x1="494.46" y1="245.23" x2="328.46" y2="245.23" gradientUnits="userSpaceOnUse"><stop offset="0" stop-color="#ef529d"/><stop offset="0.13" stop-color="#eb549e"/><stop offset="0.26" stop-color="#df59a2"/><stop offset="0.39" stop-color="#cb61a9"/><stop offset="0.52" stop-color="#af6cb2"/><stop offset="0.66" stop-color="#8a7bbd"/><stop offset="0.79" stop-color="#5e8dcb"/><stop offset="0.92" stop-color="#2aa3dc"/><stop offset="0.95" stop-color="#1da8e0"/></linearGradient><linearGradient id="linear-gradient-7" x1="-797.85" y1="52.03" x2="-742.47" y2="107.4" gradientTransform="translate(-562.62 203.53) rotate(180)" gradientUnits="userSpaceOnUse"><stop offset="0" stop-color="#ef529d"/><stop offset="0.15" stop-color="#df539e"/><stop offset="0.45" stop-color="#b457a2"/><stop offset="0.86" stop-color="#705da8"/><stop offset="0.95" stop-color="#615ea9"/></linearGradient><linearGradient id="linear-gradient-8" x1="409.8" y1="211.53" x2="445.83" y2="190.73" gradientTransform="translate(9.57 13.52) rotate(3.86)" xlink:href="#linear-gradient-5"/><linearGradient id="linear-gradient-9" x1="265.29" y1="78.49" x2="243.3" y2="116.59" gradientUnits="userSpaceOnUse"><stop offset="0" stop-color="#f8bbd6"/><stop offset="0.14" stop-color="#f4b9d4"/><stop offset="0.29" stop-color="#e8b2d0"/><stop offset="0.43" stop-color="#d4a6c8"/><stop offset="0.57" stop-color="#b896bd"/><stop offset="0.72" stop-color="#9482ae"/><stop offset="0.86" stop-color="#68699d"/><stop offset="0.95" stop-color="#495791"/></linearGradient><linearGradient id="linear-gradient-10" x1="308.22" y1="53.28" x2="264.51" y2="128.99" xlink:href="#linear-gradient-9"/><linearGradient id="linear-gradient-11" x1="325.71" y1="138.48" x2="314.83" y2="157.32" xlink:href="#linear-gradient-9"/><linearGradient id="linear-gradient-12" x1="372.37" y1="138.43" x2="350.38" y2="176.53" xlink:href="#linear-gradient-9"/><linearGradient id="linear-gradient-13" x1="415.3" y1="113.22" x2="371.59" y2="188.92" xlink:href="#linear-gradient-9"/><linearGradient id="linear-gradient-14" x1="432.79" y1="198.42" x2="421.92" y2="217.26" xlink:href="#linear-gradient-9"/><linearGradient id="linear-gradient-15" x1="295.04" y1="25.28" x2="305.85" y2="25.28" xlink:href="#linear-gradient"/><linearGradient id="linear-gradient-16" x1="291.87" y1="16.14" x2="298.22" y2="16.14" xlink:href="#linear-gradient"/><linearGradient id="linear-gradient-17" x1="403.71" y1="83.37" x2="414.52" y2="83.37" xlink:href="#linear-gradient"/><linearGradient id="linear-gradient-18" x1="400.53" y1="74.22" x2="406.88" y2="74.22" xlink:href="#linear-gradient"/><linearGradient id="linear-gradient-19" x1="46.72" y1="158.18" x2="131.94" y2="158.18" xlink:href="#linear-gradient"/><linearGradient id="linear-gradient-20" x1="46.72" y1="167.47" x2="102.92" y2="167.47" xlink:href="#linear-gradient"/><linearGradient id="linear-gradient-21" x1="46.72" y1="176.76" x2="131.94" y2="176.76" xlink:href="#linear-gradient"/><linearGradient id="linear-gradient-22" x1="46.72" y1="186.05" x2="102.92" y2="186.05" xlink:href="#linear-gradient"/><linearGradient id="linear-gradient-23" x1="48.76" y1="227.68" x2="130.15" y2="227.68" xlink:href="#linear-gradient"/><linearGradient id="linear-gradient-24" x1="125.85" y1="248.34" x2="130.85" y2="248.34" xlink:href="#linear-gradient-5"/><linearGradient id="linear-gradient-25" x1="110.28" y1="254.79" x2="115.23" y2="254.79" xlink:href="#linear-gradient-5"/><linearGradient id="linear-gradient-26" x1="94.8" y1="258.08" x2="99.68" y2="258.08" xlink:href="#linear-gradient-5"/><linearGradient id="linear-gradient-27" x1="63.61" y1="266.58" x2="68.62" y2="266.58" xlink:href="#linear-gradient-5"/><linearGradient id="linear-gradient-28" x1="79.21" y1="267.07" x2="84.21" y2="267.07" xlink:href="#linear-gradient-5"/><linearGradient id="linear-gradient-29" x1="48.01" y1="271.7" x2="53.03" y2="271.7" xlink:href="#linear-gradient-5"/><linearGradient id="linear-gradient-30" x1="222.6" y1="280.67" x2="260.46" y2="280.67" xlink:href="#linear-gradient-5"/><linearGradient id="linear-gradient-31" x1="150.86" y1="318.65" x2="218.99" y2="318.65" gradientTransform="matrix(1.89, -0.5, -0.5, 1.28, -28.53, 16.13)" xlink:href="#linear-gradient-5"/><linearGradient id="linear-gradient-32" x1="86.74" y1="341.16" x2="87.74" y2="341.16" xlink:href="#linear-gradient-5"/></defs><title>illustration-flux</title><g id="Layer_2" data-name="Layer 2"><path class="cls-1" d="M153.73,156.74V232.6a3.73,3.73,0,0,0,1.85,3.23L371,361.31a3.73,3.73,0,0,0,5.61-3.23V279.33a3.72,3.72,0,0,0-2-3.31h0a3.73,3.73,0,0,0-5.45,3.28l-.44,63.6a3.73,3.73,0,0,1-5.61,3.2l-199.45-116a3.74,3.74,0,0,1-1.86-3.23V156.74a3.74,3.74,0,0,0-3.73-3.74h-.62A3.74,3.74,0,0,0,153.73,156.74Z"/><rect class="cls-2" x="484.18" y="214.98" width="10.28" height="12.5" rx="0.79"/><rect class="cls-3" x="125.36" y="153" width="10.28" height="12.5" rx="0.79"/><path class="cls-4" d="M490.94,230.56l-125.67,72a7,7,0,0,1-7,0l-229.43-134a7,7,0,0,1,.12-12.17L253.57,86.68a7,7,0,0,1,6.9,0L490.93,218.4A7,7,0,0,1,490.94,230.56Z"/><path class="cls-5" d="M490.94,221.18l-125.67,72a7,7,0,0,1-7,0l-229.43-134a7,7,0,0,1,.12-12.17L253.57,77.3a7,7,0,0,1,6.9,0L490.93,209A7,7,0,0,1,490.94,221.18Z"/><path class="cls-6" d="M490.94,221.18l-125.67,72c-2.18,1.25-4.85,1.24-9.92-2.79L329.1,276.17c-1.77,0,.18-5.13,4.91-7.78l124.64-69.72c2.14-1.2,8.23-3,10.36-1.75L490.93,209A7,7,0,0,1,490.94,221.18Z"/><path class="cls-7" d="M128.88,147.46l125.67-72c2.17-1.25,4.85-1.24,9.92,2.79l26.25,14.25c1.77,0-.18,5.14-4.91,7.79L161.17,170c-2.15,1.2-8.23,3-10.36,1.75l-21.92-12.1A7,7,0,0,1,128.88,147.46Z"/><path class="cls-8" d="M441.55,237.79,411.14,254.6c-.53.29-1.15.25-2.25-.88l-5.84-4.13c-.41,0,.13-1.33,1.28-2l30.12-16.23c.52-.27,2-.64,2.44-.29l4.87,3.5A2,2,0,0,1,441.55,237.79Z"/><polygon class="cls-9" points="297.15 46.89 274.98 35.3 296.88 23.54 319.31 35.31 297.15 46.89"/><polygon class="cls-10" points="336.15 169.04 367.65 151.31 367.65 126.7 336.04 144.45 336.15 169.04"/><polygon class="cls-11" points="268.85 130.42 239.91 114.63 239.91 64.36 268.81 80.53 268.85 130.42"/><polygon class="cls-9" points="268.81 80.53 239.91 64.36 268.85 48.24 297.74 64.41 268.81 80.53"/><polygon class="cls-10" points="268.85 130.49 297.78 114.71 297.78 64.43 268.81 80.53 268.85 130.49"/><polygon class="cls-12" points="297.61 147.21 274.98 135.03 274.98 35.3 297.15 46.89 297.61 147.21"/><polygon class="cls-10" points="297.61 147.21 319.31 135.04 319.31 35.31 297.13 46.9 297.61 147.21"/><polygon class="cls-13" points="336.15 169.04 304.42 151.31 304.42 126.7 336.04 144.45 336.15 169.04"/><polygon class="cls-9" points="336.04 144.45 304.42 126.7 335.94 109.15 367.55 126.9 336.04 144.45"/><polygon class="cls-9" points="404.24 106.83 382.06 95.24 403.96 83.48 426.39 95.25 404.24 106.83"/><polygon class="cls-10" points="443.24 228.98 474.74 211.25 474.74 186.64 443.12 204.39 443.24 228.98"/><polygon class="cls-14" points="375.93 190.36 347 174.57 347 124.3 375.89 140.47 375.93 190.36"/><polygon class="cls-9" points="375.89 140.47 347 124.3 375.93 108.18 404.83 124.34 375.89 140.47"/><polygon class="cls-10" points="375.93 190.43 404.87 174.65 404.87 124.37 375.89 140.47 375.93 190.43"/><polygon class="cls-15" points="404.69 207.15 382.06 194.97 382.06 95.24 404.24 106.83 404.69 207.15"/><polygon class="cls-10" points="404.69 207.15 426.39 194.98 426.39 95.25 404.21 106.84 404.69 207.15"/><polygon class="cls-16" points="443.24 228.98 411.51 211.25 411.51 186.64 443.12 204.39 443.24 228.98"/><polygon class="cls-9" points="443.12 204.39 411.51 186.64 443.02 169.09 474.64 186.84 443.12 204.39"/><path class="cls-17" d="M300.44,33.68a5.39,5.39,0,0,1-5.21-6.9,12.94,12.94,0,0,1,1.9-3.83,30.92,30.92,0,0,0,2.53-4.25,9.2,9.2,0,0,0,.58-1.54c0-.11.06-.26.19-.27s.18.15.21.25A17.43,17.43,0,0,0,303,21.85a23,23,0,0,1,2.28,3.89,5.73,5.73,0,0,1-.84,6.19A5.15,5.15,0,0,1,300.44,33.68Z"/><path class="cls-18" d="M296,28.23c.09-.3.25-.52.61-.45s.42.35.46.64a3.64,3.64,0,0,0,3.09,3.22,1.38,1.38,0,0,0,.29,0,1.53,1.53,0,0,1,.64,0,1.6,1.6,0,0,0,.49,0,.45.45,0,0,1,.55.29c.09.26-.06.41-.25.53a1.9,1.9,0,0,1-1,.24,4.47,4.47,0,0,1-4.57-3c-.14-.39-.23-.8-.35-1.2A.11.11,0,0,1,296,28.23Z"/><path class="cls-19" d="M296,28.23v.18c-.18,0,0-.14-.08-.19a.09.09,0,0,1,0-.07h0A.36.36,0,0,0,296,28.23Z"/><path class="cls-20" d="M295,21.07A3.16,3.16,0,0,1,292,17a7.5,7.5,0,0,1,1.11-2.25,18,18,0,0,0,1.49-2.49,5.85,5.85,0,0,0,.34-.91c0-.06,0-.15.11-.16s.11.09.12.15a10.35,10.35,0,0,0,1.41,2.77,13.36,13.36,0,0,1,1.34,2.28,3.37,3.37,0,0,1-.49,3.64A3,3,0,0,1,295,21.07Z"/><path class="cls-18" d="M292.43,17.87c.06-.17.15-.3.36-.26s.25.2.27.38a2.13,2.13,0,0,0,1.81,1.89,1,1,0,0,0,.17,0,1,1,0,0,1,.38,0,1,1,0,0,0,.29,0A.26.26,0,0,1,296,20c.06.16,0,.24-.15.32a1.08,1.08,0,0,1-.56.14,2.63,2.63,0,0,1-2.68-1.8c-.09-.23-.14-.46-.21-.7A.07.07,0,0,1,292.43,17.87Z"/><path class="cls-19" d="M292.43,17.87V18c-.1,0,0-.08-.05-.12a.1.1,0,0,0,0,0h0Z"/><path class="cls-21" d="M409.1,91.76a5.38,5.38,0,0,1-5.2-6.9A12.71,12.71,0,0,1,405.8,81a32,32,0,0,0,2.53-4.25,9.2,9.2,0,0,0,.58-1.54c0-.11.06-.26.19-.27s.17.15.2.25a17.87,17.87,0,0,0,2.39,4.71A22.37,22.37,0,0,1,414,83.82a5.7,5.7,0,0,1-.83,6.19A5.15,5.15,0,0,1,409.1,91.76Z"/><path class="cls-18" d="M404.67,86.31c.09-.3.25-.52.61-.45s.42.35.46.64a3.64,3.64,0,0,0,3.09,3.22,1.31,1.31,0,0,0,.28,0,1.53,1.53,0,0,1,.64,0,2.14,2.14,0,0,0,.5-.06.46.46,0,0,1,.55.29c.09.26-.06.41-.25.53a1.81,1.81,0,0,1-1,.24,4.46,4.46,0,0,1-4.57-3c-.14-.39-.24-.8-.35-1.2A.11.11,0,0,1,404.67,86.31Z"/><path class="cls-19" d="M404.67,86.31v.18c-.18,0,0-.14-.08-.19s0,0,0-.07,0,0,0,0A.56.56,0,0,1,404.67,86.31Z"/><path class="cls-22" d="M403.7,79.16a3.17,3.17,0,0,1-3.06-4.06,7.77,7.77,0,0,1,1.12-2.25,18,18,0,0,0,1.49-2.49,5.85,5.85,0,0,0,.34-.91c0-.06,0-.15.11-.16s.1.09.12.15a10.35,10.35,0,0,0,1.41,2.77,14.49,14.49,0,0,1,1.34,2.28,3.38,3.38,0,0,1-.49,3.64A3.06,3.06,0,0,1,403.7,79.16Z"/><path class="cls-18" d="M401.1,76c0-.17.15-.3.36-.26s.24.21.27.38A2.13,2.13,0,0,0,403.54,78h.17a.81.81,0,0,1,.38,0,1,1,0,0,0,.29,0,.27.27,0,0,1,.32.18c.05.15,0,.24-.15.31a1.11,1.11,0,0,1-.56.14,2.62,2.62,0,0,1-2.68-1.8,7.15,7.15,0,0,1-.21-.7S401.06,76,401.1,76Z"/><path class="cls-19" d="M401.1,76v.11c-.11,0,0-.08-.05-.11a.06.06,0,0,1,0,0h0Z"/><path class="cls-23" d="M38.71,136.84H140.15a10.73,10.73,0,0,1,10.73,10.73V313a0,0,0,0,1,0,0H38.71A10.73,10.73,0,0,1,28,302.3V147.57A10.73,10.73,0,0,1,38.71,136.84Z"/><rect class="cls-24" x="46.72" y="155.49" width="85.22" height="5.39" rx="1.07"/><rect class="cls-25" x="46.72" y="164.78" width="56.19" height="5.39" rx="1.07"/><rect class="cls-26" x="46.72" y="174.07" width="85.22" height="5.39" rx="1.07"/><rect class="cls-27" x="46.72" y="183.36" width="56.19" height="5.39" rx="1.07"/><path class="cls-28" d="M99.65,233.78c.35.41.18.9.18,1.35q0,23,0,45.92c0,1.05.28,1.34,1.32,1.31,2.63-.07,5.27-.06,7.9,0,1,0,1.21-.25,1.21-1.21q0-26.37,0-52.74c0-.44-.21-.95.23-1.32a2.86,2.86,0,0,1,.32,2q0,25.29,0,50.57c0,2.55-.13,2.34,2.36,2.35,1.68,0,1.71,0,1.71-1.8q0-25.54,0-51.11a2.91,2.91,0,0,1,.31-2c.45.37.23.87.23,1.31q0,26.24,0,52.48c0,1.45,0,1.45,1.47,1.45h9a1.62,1.62,0,0,1,1.22-.33c.68,0,1.37,0,2.06,0,1.18,0,1.28-.12,1.31-1.31,0-.4,0-.8,0-1.2q0-31.53,0-63.05a3.25,3.25,0,0,1,.3-2.1c.48.35.25.86.25,1.3q0,32.61,0,65.24c0,1.48,0,1.48,1.43,1.48H138c1.22,0,1.92.65,1.93,1.71s-.7,1.72-1.9,1.75H41.58c-.28,0-.58,0-.86,0-1.17-.11-1.81-.74-1.79-1.76s.62-1.57,1.74-1.69a6.43,6.43,0,0,1,.76,0H48a7.69,7.69,0,0,1,5,0H63.63a7.83,7.83,0,0,1,5,0c3.1,0,6.21,0,9.31,0,.93,0,1.14-.3,1.13-1.17q0-14,0-27.95c0-.42-.14-.87.18-1.25.53.54.37,1.22.37,1.85q0,12.89,0,25.76c0,.36,0,.72,0,1.08,0,1.18.14,1.24,1.32,1.32s2.24-.3,3.28.33c3.07,0,6.14,0,9.21,0,1,0,1.24-.33,1.24-1.29q0-23,0-45.95c0-.45-.18-.94.19-1.35a2.69,2.69,0,0,1,.37,2q0,22,0,44c0,2.48-.11,2.27,2.31,2.28,1.72,0,1.75,0,1.75-1.75q0-22.26,0-44.5C99.27,235.07,99.12,234.35,99.65,233.78Z"/><path class="cls-29" d="M66.34,239.83l8.75,1.42c1.6.26,3.21.48,4.8.79a1.24,1.24,0,0,0,1.48-.66c4.6-7.08,9.26-14.13,13.84-21.22A3.72,3.72,0,0,1,98,218.38c4.38-.7,8.74-1.48,13.11-2.23a2.47,2.47,0,0,0,1.47-.8q7-7.41,14-14.8c.15-.16.29-.32.45-.47a1.77,1.77,0,0,1,2.6-.17,1.71,1.71,0,0,1-.06,2.59c-1.64,1.78-3.3,3.53-5,5.29-3.32,3.51-6.67,7-10,10.54a3.65,3.65,0,0,1-2.22,1.18c-4.41.72-8.81,1.52-13.22,2.26a1.85,1.85,0,0,0-1.35.91C93,230,88.26,237.23,83.53,244.52a2.41,2.41,0,0,1-2.79,1.23c-4.33-.77-8.68-1.43-13-2.15a2.21,2.21,0,0,0-2,.5c-4.57,3.77-9.18,7.48-13.78,11.21-1,.83-2.12.83-2.78,0s-.54-1.86.51-2.72l15.14-12.29A2,2,0,0,1,66.34,239.83Z"/><path class="cls-30" d="M130.78,214.32c0,.39.05.79.05,1.18q0,32.79,0,65.57c0,1-.21,1.41-1.29,1.31s-2.45,0-3.68-.05q0-33.51,0-67c0-.8.21-1.07,1-1C128.18,214.36,129.48,214.31,130.78,214.32Z"/><path class="cls-31" d="M115.19,227.1c0,.39,0,.79,0,1.19q0,26.31,0,52.63c0,1.43,0,1.46-1.37,1.42-1.11,0-2.52.49-3.23-.24s-.19-2.07-.19-3.14q0-25.23,0-50.47c0-.46,0-.93,0-1.4Z"/><path class="cls-32" d="M99.65,233.78q0,23.84,0,47.68c0,.71-.22.94-.92.91-1.09-.05-2.17,0-3.25,0-.51,0-.75-.17-.7-.69,0-.11,0-.22,0-.33q0-23.78,0-47.57Z"/><path class="cls-33" d="M68.6,282.33h-5q0-15.22,0-30.44c0-.87.26-1.12,1.09-1.06a22.11,22.11,0,0,0,2.82,0c.81-.06,1.11.16,1.1,1.06Q68.58,267.11,68.6,282.33Z"/><path class="cls-34" d="M84.19,282.33c-1.3,0-2.6-.05-3.9,0-.91.05-1.07-.31-1.07-1.12,0-9.36,0-18.71,0-28.07,0-.4,0-.79,0-1.19a17.24,17.24,0,0,1,4.48-.16c.64,0,.51.6.51,1,0,2.35,0,4.69,0,7Q84.2,271.1,84.19,282.33Z"/><path class="cls-35" d="M53,282.34H48c0-6.71,0-13.43,0-20.14,0-.92.28-1.19,1.16-1.12a17.51,17.51,0,0,0,2.71,0c.88-.07,1.16.2,1.15,1.12C53,268.91,53,275.63,53,282.34Z"/><path class="cls-36" d="M222.6,275.5a1.2,1.2,0,0,1,.19-.47l4.86-8.16a1.23,1.23,0,0,1,.31-.4.8.8,0,0,1,.67.12c.37.24.76.45,1.13.68a2.46,2.46,0,0,1,1.23,2.65c0,.23,0,.37.22.46a2.54,2.54,0,0,1,.28.16c.74.44.74.44,1.33-.2a1.48,1.48,0,0,1,.52-.41l1.51-1a.79.79,0,0,0,.38-.21l1.85-.79a.88.88,0,0,1,.66-.21l1.67-.37a1.15,1.15,0,0,1,.48-.07l1.85-.09,1.16.07A15.8,15.8,0,0,1,246,268a13.55,13.55,0,0,1,5.74,4,.86.86,0,0,0,.14.13,3.85,3.85,0,0,1,.41.4,15.27,15.27,0,0,1,1.85,3.36,5.61,5.61,0,0,0,.26.79,13.89,13.89,0,0,1,.45,6.08c-.05.29-.1.57-.16.86-.1.48-.09.51.34.76l.22.14a.66.66,0,0,0,.87,0,2.15,2.15,0,0,1,1-.39,4,4,0,0,1,1,.05,9,9,0,0,1,2.06,1.15.62.62,0,0,1,.22.69,2.46,2.46,0,0,1-.22.39q-2.36,4-4.73,7.95a2.11,2.11,0,0,1-.26.4.72.72,0,0,1-.86.05,14.87,14.87,0,0,1-1.44-.87,2.64,2.64,0,0,1-1.11-2.14,1.87,1.87,0,0,0,.07-.4.37.37,0,0,0-.21-.43l-.25-.15c-.69-.41-.52-.35-1.06.09l-.38.32a18.18,18.18,0,0,1-1.6,1.11l-.64.34a10.92,10.92,0,0,1-1.64.73,2.46,2.46,0,0,0-.38.14c-.63.18-1.28.35-1.93.49a4.13,4.13,0,0,0-.49.07,16,16,0,0,1-1.69.13,4.49,4.49,0,0,1-1-.09,14.73,14.73,0,0,1-4-.9,13.33,13.33,0,0,1-5.49-4l-.23-.23-.47-.65a17.51,17.51,0,0,1-1.73-3.43.63.63,0,0,1-.15-.51,15.46,15.46,0,0,1-.53-4.28l0-.67.18-1.28c-.07-.09.06-.15,0-.24.27-.82.27-.82-.47-1.26-.09-.06-.19-.1-.28-.17s-.34-.12-.54,0a2.44,2.44,0,0,1-2.77.13c-.4-.22-.78-.47-1.17-.69A.8.8,0,0,1,222.6,275.5Z"/><path class="cls-37" d="M240.93,281.79l-6.29-3.42c-.58-.31-.65-.53-.35-1.09.18-.34.37-.66.55-1a.57.57,0,0,1,.84-.25l.29.16,12.34,6.7c.74.41.78.55.39,1.29-.13.25-.26.5-.4.75-.29.51-.52.57-1,.29Z"/><line class="cls-38" x1="233.89" y1="290.95" x2="87.24" y2="373.89"/><line class="cls-39" x1="87.24" y1="308.42" x2="87.24" y2="373.89"/></g></svg>