<?xml version="1.0" encoding="utf-8"?>
<!-- Generator: Adobe Illustrator 23.0.1, SVG Export Plug-In . SVG Version: 6.00 Build 0)  -->
<svg version="1.1" id="Layer_1" xmlns="http://www.w3.org/2000/svg" xmlns:xlink="http://www.w3.org/1999/xlink" x="0px" y="0px"
	 viewBox="0 0 113 57" style="enable-background:new 0 0 113 57;" xml:space="preserve">
<style type="text/css">
	.st0{fill:#56A5DB;}
	.st1{fill:#FFFFFF;}
</style>
<path class="st0" d="M2.5,14.6L21.2,3.9c1-0.6,2.1-0.6,3.1,0L43,14.6c1,0.6,1.6,1.6,1.6,2.7v21.5c0,1.1-0.6,2.1-1.6,2.7L24.3,52.2
	c-1,0.6-2.1,0.6-3.1,0L2.5,41.5c-1-0.6-1.6-1.6-1.6-2.7V17.3C0.9,16.2,1.5,15.2,2.5,14.6"/>
<path class="st1" d="M19.3,40.4L19.3,40.4c-2.2,0-3.9-1.8-3.9-3.9v-3.9h3.9c2.2,0,3.9,1.8,3.9,3.9C23.2,38.6,21.4,40.4,19.3,40.4"/>
<rect x="15.3" y="17.6" class="st1" width="17.1" height="4.6"/>
<rect x="15.3" y="25.3" class="st1" width="13.4" height="4.6"/>
<path class="st0" d="M58.5,26.8h-3.3v-3.4h3.3v-2.3c0-1.1,0.1-2.1,0.2-3c0.2-0.9,0.5-1.7,0.9-2.3c0.4-0.6,1-1.1,1.8-1.5
	c0.8-0.3,1.8-0.5,3.1-0.5c0.9,0,1.8,0.1,2.6,0.2l-0.3,3.4c-0.3-0.1-0.6-0.1-0.8-0.2c-0.3,0-0.5-0.1-0.8-0.1c-0.6,0-1,0.1-1.3,0.3
	c-0.3,0.2-0.6,0.4-0.8,0.7c-0.2,0.3-0.3,0.7-0.4,1.1c-0.1,0.4-0.1,0.8-0.1,1.3v2.9h3.7v3.4h-3.7v12.7h-4V26.8z M68.9,14.1h4v25.4h-4
	V14.1z"/>
<path class="st0" d="M91.7,39.5h-3.8v-2.6h-0.1c-0.4,0.8-1,1.5-1.7,2.1c-0.8,0.6-1.8,0.9-3.2,0.9c-1.1,0-2-0.2-2.7-0.5
	c-0.8-0.3-1.4-0.8-1.8-1.4c-0.5-0.6-0.8-1.3-1-2c-0.2-0.8-0.3-1.6-0.3-2.4V23.4h4v8.2c0,0.4,0,0.9,0.1,1.5c0,0.5,0.2,1.1,0.4,1.5
	c0.2,0.5,0.5,0.9,0.9,1.2c0.4,0.3,0.9,0.5,1.7,0.5c0.7,0,1.2-0.1,1.7-0.3c0.5-0.2,0.8-0.5,1.1-0.9c0.3-0.4,0.5-0.8,0.7-1.3
	c0.1-0.5,0.2-1,0.2-1.5v-8.8h4V39.5z"/>
<polygon class="st0" points="100.4,30.8 94.9,23.4 99.8,23.4 103,28.2 106.5,23.4 111.1,23.4 105.6,30.8 112.1,39.5 107.2,39.5 
	103,33.7 98.7,39.5 94,39.5 "/>
</svg>
